<svg width="264" height="264" viewBox="0 0 264 264" fill="none" xmlns="http://www.w3.org/2000/svg">
<g filter="url(#filter0_d)">
<path d="M4 0H260V256H4V0Z" fill="#101014"/>
<path d="M28.5143 201.47H23.063C22.2761 201.47 21.7123 201.292 21.3716 200.937C21.039 200.574 20.8727 200 20.8727 199.215V185.564C20.8727 184.763 21.0431 184.189 21.3838 183.842C21.7326 183.487 22.2923 183.31 23.063 183.31H28.8429C29.6946 183.31 30.4328 183.363 31.0575 183.471C31.6821 183.578 32.2418 183.785 32.7367 184.09C33.1585 184.346 33.5317 184.672 33.8561 185.069C34.1806 185.457 34.428 185.89 34.5984 186.369C34.7687 186.84 34.8539 187.34 34.8539 187.868C34.8539 189.685 33.9616 191.015 32.1769 191.857C34.5213 192.617 35.6935 194.095 35.6935 196.292C35.6935 197.308 35.438 198.224 34.9269 199.042C34.4159 199.851 33.7263 200.45 32.8583 200.838C32.3148 201.069 31.6902 201.234 30.9845 201.334C30.2787 201.424 29.4553 201.47 28.5143 201.47ZM28.2466 193.406H24.4867V198.707H28.3683C30.81 198.707 32.0309 197.811 32.0309 196.019C32.0309 195.103 31.7145 194.438 31.0818 194.025C30.4491 193.612 29.504 193.406 28.2466 193.406ZM24.4867 186.072V190.767H27.7964C28.6968 190.767 29.3904 190.68 29.8772 190.507C30.372 190.333 30.7492 190.003 31.0088 189.516C31.2116 189.169 31.313 188.781 31.313 188.351C31.313 187.435 30.9926 186.828 30.3517 186.53C29.7109 186.225 28.7333 186.072 27.4192 186.072H24.4867Z" fill="white"/>
<path d="M47.2289 199.872V199.438C46.8314 199.95 46.4137 200.38 45.9756 200.727C45.5376 201.073 45.0589 201.329 44.5398 201.495C44.0206 201.668 43.4284 201.755 42.7632 201.755C41.9601 201.755 41.2381 201.585 40.5973 201.247C39.9645 200.908 39.4738 200.442 39.1249 199.847C38.7112 199.129 38.5044 198.096 38.5044 196.75V190.049C38.5044 189.371 38.6544 188.868 38.9546 188.537C39.2547 188.199 39.6522 188.029 40.1471 188.029C40.65 188.029 41.0556 188.199 41.3639 188.537C41.6721 188.876 41.8263 189.38 41.8263 190.049V195.462C41.8263 196.246 41.8912 196.907 42.021 197.444C42.1508 197.972 42.382 198.389 42.7145 198.695C43.0553 198.992 43.5136 199.141 44.0895 199.141C44.6493 199.141 45.1766 198.972 45.6714 198.633C46.1662 198.294 46.5272 197.853 46.7544 197.308C46.941 196.829 47.0342 195.78 47.0342 194.161V190.049C47.0342 189.38 47.1884 188.876 47.4966 188.537C47.8049 188.199 48.2064 188.029 48.7013 188.029C49.1961 188.029 49.5936 188.199 49.8938 188.537C50.1939 188.868 50.344 189.371 50.344 190.049V199.847C50.344 200.491 50.198 200.974 49.9059 201.296C49.622 201.618 49.2529 201.779 48.7986 201.779C48.3443 201.779 47.9671 201.614 47.667 201.284C47.3749 200.945 47.2289 200.475 47.2289 199.872Z" fill="white"/>
<path d="M53.8484 188.327H54.2134V186.295C54.2134 185.75 54.2256 185.325 54.25 185.019C54.2824 184.705 54.3635 184.437 54.4933 184.214C54.6231 183.983 54.8097 183.797 55.053 183.657C55.2964 183.508 55.5682 183.434 55.8683 183.434C56.2901 183.434 56.6714 183.595 57.0121 183.917C57.2393 184.131 57.3812 184.396 57.438 184.709C57.5029 185.015 57.5354 185.453 57.5354 186.023V188.327H58.7522C59.2227 188.327 59.5796 188.442 59.823 188.673C60.0744 188.896 60.2002 189.186 60.2002 189.541C60.2002 189.995 60.0217 190.313 59.6648 190.494C59.316 190.676 58.813 190.767 58.1559 190.767H57.5354V196.986C57.5354 197.514 57.5516 197.923 57.584 198.212C57.6246 198.493 57.7219 198.724 57.8761 198.906C58.0383 199.079 58.2979 199.166 58.6548 199.166C58.8495 199.166 59.1132 199.133 59.4457 199.067C59.7783 198.992 60.0379 198.955 60.2245 198.955C60.4922 198.955 60.7315 199.067 60.9424 199.29C61.1615 199.504 61.271 199.773 61.271 200.095C61.271 200.64 60.9789 201.057 60.3949 201.346C59.8108 201.635 58.9712 201.779 57.8761 201.779C56.8377 201.779 56.0508 201.602 55.5154 201.247C54.98 200.892 54.6272 200.4 54.4568 199.773C54.2946 199.145 54.2134 198.307 54.2134 197.258V190.767H53.7754C53.2968 190.767 52.9317 190.651 52.6803 190.42C52.4288 190.189 52.303 189.896 52.303 189.541C52.303 189.186 52.4328 188.896 52.6924 188.673C52.9601 188.442 53.3455 188.327 53.8484 188.327Z" fill="white"/>
<path d="M62.6825 188.327H63.0475V186.295C63.0475 185.75 63.0597 185.325 63.084 185.019C63.1165 184.705 63.1976 184.437 63.3274 184.214C63.4572 183.983 63.6438 183.797 63.8871 183.657C64.1305 183.508 64.4022 183.434 64.7024 183.434C65.1242 183.434 65.5055 183.595 65.8462 183.917C66.0733 184.131 66.2153 184.396 66.2721 184.709C66.337 185.015 66.3694 185.453 66.3694 186.023V188.327H67.5862C68.0567 188.327 68.4137 188.442 68.657 188.673C68.9085 188.896 69.0342 189.186 69.0342 189.541C69.0342 189.995 68.8558 190.313 68.4988 190.494C68.15 190.676 67.6471 190.767 66.99 190.767H66.3694V196.986C66.3694 197.514 66.3856 197.923 66.4181 198.212C66.4587 198.493 66.556 198.724 66.7101 198.906C66.8724 199.079 67.132 199.166 67.4889 199.166C67.6836 199.166 67.9472 199.133 68.2798 199.067C68.6124 198.992 68.872 198.955 69.0586 198.955C69.3263 198.955 69.5656 199.067 69.7765 199.29C69.9955 199.504 70.105 199.773 70.105 200.095C70.105 200.64 69.813 201.057 69.2289 201.346C68.6449 201.635 67.8053 201.779 66.7101 201.779C65.6718 201.779 64.8849 201.602 64.3495 201.247C63.8141 200.892 63.4612 200.4 63.2909 199.773C63.1286 199.145 63.0475 198.307 63.0475 197.258V190.767H62.6095C62.1309 190.767 61.7658 190.651 61.5143 190.42C61.2629 190.189 61.1371 189.896 61.1371 189.541C61.1371 189.186 61.2669 188.896 61.5265 188.673C61.7942 188.442 62.1795 188.327 62.6825 188.327Z" fill="white"/>
<path d="M83.7699 194.904C83.7699 195.912 83.6157 196.841 83.3075 197.692C82.9992 198.542 82.5531 199.273 81.969 199.884C81.3849 200.495 80.6873 200.966 79.8761 201.296C79.0649 201.618 78.1522 201.779 77.1382 201.779C76.1323 201.779 75.2278 201.614 74.4247 201.284C73.6216 200.954 72.924 200.483 72.3318 199.872C71.7477 199.252 71.3016 198.526 70.9933 197.692C70.6932 196.849 70.5431 195.92 70.5431 194.904C70.5431 193.88 70.6972 192.943 71.0055 192.092C71.3137 191.242 71.7559 190.515 72.3318 189.912C72.9078 189.309 73.6054 188.847 74.4247 188.525C75.2441 188.195 76.1486 188.029 77.1382 188.029C78.1441 188.029 79.0567 188.195 79.8761 188.525C80.6954 188.855 81.3971 189.326 81.9812 189.937C82.5652 190.548 83.0073 191.275 83.3075 192.117C83.6157 192.96 83.7699 193.889 83.7699 194.904ZM80.4358 194.904C80.4358 193.525 80.1357 192.452 79.5354 191.684C78.9432 190.916 78.1441 190.532 77.1382 190.532C76.4893 190.532 75.9174 190.705 75.4225 191.052C74.9277 191.39 74.5464 191.894 74.2787 192.563C74.011 193.232 73.8772 194.013 73.8772 194.904C73.8772 195.788 74.007 196.56 74.2665 197.221C74.5342 197.882 74.9115 198.389 75.3982 198.745C75.893 199.091 76.473 199.265 77.1382 199.265C78.1441 199.265 78.9432 198.881 79.5354 198.113C80.1357 197.337 80.4358 196.267 80.4358 194.904Z" fill="white"/>
<path d="M89.4159 189.9V190.309C90 189.524 90.6368 188.95 91.3263 188.587C92.0239 188.215 92.823 188.029 93.7234 188.029C94.5995 188.029 95.3823 188.223 96.0719 188.612C96.7614 189 97.2765 189.549 97.6172 190.259C97.8362 190.672 97.9782 191.118 98.0431 191.597C98.108 192.076 98.1404 192.687 98.1404 193.43V199.723C98.1404 200.4 97.9863 200.912 97.6781 201.259C97.3779 201.606 96.9845 201.779 96.4977 201.779C96.0029 201.779 95.6014 201.602 95.2931 201.247C94.9848 200.892 94.8307 200.384 94.8307 199.723V194.087C94.8307 192.972 94.6766 192.121 94.3683 191.535C94.0682 190.94 93.4638 190.643 92.5553 190.643C91.9631 190.643 91.4236 190.825 90.9369 191.188C90.4502 191.543 90.0933 192.035 89.8661 192.662C89.7039 193.166 89.6227 194.107 89.6227 195.487V199.723C89.6227 200.409 89.4646 200.925 89.1482 201.272C88.8399 201.61 88.4384 201.779 87.9435 201.779C87.4649 201.779 87.0715 201.602 86.7632 201.247C86.455 200.892 86.3008 200.384 86.3008 199.723V189.949C86.3008 189.305 86.4388 188.826 86.7146 188.512C86.9904 188.19 87.3676 188.029 87.8462 188.029C88.1382 188.029 88.4019 188.1 88.6371 188.24C88.8724 188.38 89.059 188.591 89.1969 188.872C89.3429 189.152 89.4159 189.495 89.4159 189.9Z" fill="white"/>
<path d="M123.122 195.734C123.122 196.312 122.98 196.94 122.696 197.617C122.42 198.286 121.982 198.947 121.382 199.599C120.781 200.243 120.015 200.768 119.082 201.173C118.149 201.577 117.062 201.779 115.821 201.779C114.88 201.779 114.024 201.689 113.253 201.507C112.483 201.325 111.781 201.045 111.148 200.665C110.524 200.276 109.948 199.769 109.42 199.141C108.95 198.571 108.548 197.935 108.216 197.233C107.883 196.523 107.632 195.767 107.461 194.966C107.299 194.165 107.218 193.315 107.218 192.415C107.218 190.953 107.425 189.644 107.838 188.488C108.26 187.332 108.861 186.345 109.639 185.527C110.418 184.701 111.331 184.074 112.377 183.644C113.424 183.215 114.539 183 115.723 183C117.167 183 118.453 183.293 119.581 183.88C120.708 184.466 121.572 185.193 122.173 186.06C122.773 186.919 123.073 187.732 123.073 188.5C123.073 188.921 122.927 189.293 122.635 189.615C122.343 189.937 121.99 190.098 121.576 190.098C121.114 190.098 120.765 189.987 120.53 189.764C120.303 189.541 120.047 189.157 119.763 188.612C119.293 187.711 118.737 187.038 118.096 186.592C117.463 186.146 116.681 185.923 115.748 185.923C114.263 185.923 113.079 186.497 112.195 187.645C111.319 188.793 110.881 190.424 110.881 192.538C110.881 193.951 111.075 195.127 111.465 196.069C111.854 197.002 112.406 197.7 113.119 198.162C113.833 198.625 114.669 198.856 115.626 198.856C116.664 198.856 117.541 198.596 118.254 198.076C118.976 197.547 119.52 196.775 119.885 195.759C120.039 195.28 120.23 194.892 120.457 194.595C120.684 194.289 121.049 194.136 121.552 194.136C121.982 194.136 122.351 194.289 122.659 194.595C122.968 194.9 123.122 195.28 123.122 195.734Z" fill="white"/>
<path d="M134.767 199.872V199.438C134.369 199.95 133.951 200.38 133.513 200.727C133.075 201.073 132.597 201.329 132.077 201.495C131.558 201.668 130.966 201.755 130.301 201.755C129.498 201.755 128.776 201.585 128.135 201.247C127.502 200.908 127.011 200.442 126.663 199.847C126.249 199.129 126.042 198.096 126.042 196.75V190.049C126.042 189.371 126.192 188.868 126.492 188.537C126.792 188.199 127.19 188.029 127.685 188.029C128.188 188.029 128.593 188.199 128.902 188.537C129.21 188.876 129.364 189.38 129.364 190.049V195.462C129.364 196.246 129.429 196.907 129.559 197.444C129.688 197.972 129.92 198.389 130.252 198.695C130.593 198.992 131.051 199.141 131.627 199.141C132.187 199.141 132.714 198.972 133.209 198.633C133.704 198.294 134.065 197.853 134.292 197.308C134.479 196.829 134.572 195.78 134.572 194.161V190.049C134.572 189.38 134.726 188.876 135.034 188.537C135.343 188.199 135.744 188.029 136.239 188.029C136.734 188.029 137.131 188.199 137.431 188.537C137.732 188.868 137.882 189.371 137.882 190.049V199.847C137.882 200.491 137.736 200.974 137.444 201.296C137.16 201.618 136.791 201.779 136.336 201.779C135.882 201.779 135.505 201.614 135.205 201.284C134.913 200.945 134.767 200.475 134.767 199.872Z" fill="white"/>
<path d="M151.899 197.357C151.899 198.29 151.676 199.091 151.23 199.76C150.784 200.421 150.123 200.925 149.247 201.272C148.379 201.61 147.32 201.779 146.071 201.779C144.878 201.779 143.856 201.594 143.004 201.222C142.153 200.85 141.524 200.388 141.118 199.835C140.713 199.273 140.51 198.712 140.51 198.15C140.51 197.778 140.64 197.46 140.899 197.196C141.159 196.932 141.487 196.8 141.885 196.8C142.234 196.8 142.501 196.886 142.688 197.06C142.875 197.233 143.053 197.477 143.223 197.791C143.564 198.394 143.97 198.844 144.44 199.141C144.919 199.438 145.568 199.587 146.387 199.587C147.052 199.587 147.596 199.438 148.018 199.141C148.448 198.835 148.663 198.489 148.663 198.1C148.663 197.506 148.44 197.072 147.993 196.8C147.555 196.527 146.829 196.267 145.815 196.019C144.671 195.73 143.739 195.429 143.017 195.115C142.303 194.793 141.731 194.372 141.301 193.851C140.871 193.331 140.656 192.691 140.656 191.931C140.656 191.254 140.855 190.614 141.252 190.011C141.65 189.408 142.234 188.929 143.004 188.574C143.783 188.211 144.72 188.029 145.815 188.029C146.675 188.029 147.446 188.12 148.127 188.302C148.817 188.484 149.389 188.727 149.843 189.033C150.305 189.338 150.654 189.677 150.889 190.049C151.133 190.42 151.254 190.783 151.254 191.139C151.254 191.527 151.125 191.845 150.865 192.092C150.614 192.34 150.253 192.464 149.782 192.464C149.441 192.464 149.149 192.365 148.906 192.167C148.671 191.969 148.399 191.671 148.091 191.275C147.839 190.945 147.543 190.68 147.202 190.482C146.862 190.284 146.399 190.185 145.815 190.185C145.215 190.185 144.716 190.317 144.319 190.581C143.921 190.837 143.722 191.159 143.722 191.547C143.722 191.903 143.868 192.196 144.16 192.427C144.452 192.65 144.846 192.836 145.341 192.984C145.836 193.133 146.517 193.315 147.385 193.529C148.415 193.785 149.255 194.091 149.904 194.446C150.561 194.801 151.056 195.222 151.388 195.71C151.729 196.189 151.899 196.738 151.899 197.357Z" fill="white"/>
<path d="M154.893 188.327H155.258V186.295C155.258 185.75 155.27 185.325 155.294 185.019C155.327 184.705 155.408 184.437 155.538 184.214C155.667 183.983 155.854 183.797 156.097 183.657C156.341 183.508 156.612 183.434 156.913 183.434C157.334 183.434 157.716 183.595 158.056 183.917C158.284 184.131 158.426 184.396 158.482 184.709C158.547 185.015 158.58 185.453 158.58 186.023V188.327H159.796C160.267 188.327 160.624 188.442 160.867 188.673C161.119 188.896 161.244 189.186 161.244 189.541C161.244 189.995 161.066 190.313 160.709 190.494C160.36 190.676 159.857 190.767 159.2 190.767H158.58V196.986C158.58 197.514 158.596 197.923 158.628 198.212C158.669 198.493 158.766 198.724 158.92 198.906C159.083 199.079 159.342 199.166 159.699 199.166C159.894 199.166 160.157 199.133 160.49 199.067C160.823 198.992 161.082 198.955 161.269 198.955C161.536 198.955 161.776 199.067 161.987 199.29C162.206 199.504 162.315 199.773 162.315 200.095C162.315 200.64 162.023 201.057 161.439 201.346C160.855 201.635 160.015 201.779 158.92 201.779C157.882 201.779 157.095 201.602 156.56 201.247C156.024 200.892 155.671 200.4 155.501 199.773C155.339 199.145 155.258 198.307 155.258 197.258V190.767H154.82C154.341 190.767 153.976 190.651 153.725 190.42C153.473 190.189 153.347 189.896 153.347 189.541C153.347 189.186 153.477 188.896 153.737 188.673C154.004 188.442 154.39 188.327 154.893 188.327Z" fill="white"/>
<path d="M175.98 194.904C175.98 195.912 175.826 196.841 175.518 197.692C175.209 198.542 174.763 199.273 174.179 199.884C173.595 200.495 172.897 200.966 172.086 201.296C171.275 201.618 170.362 201.779 169.348 201.779C168.343 201.779 167.438 201.614 166.635 201.284C165.832 200.954 165.134 200.483 164.542 199.872C163.958 199.252 163.512 198.526 163.204 197.692C162.903 196.849 162.753 195.92 162.753 194.904C162.753 193.88 162.907 192.943 163.216 192.092C163.524 191.242 163.966 190.515 164.542 189.912C165.118 189.309 165.816 188.847 166.635 188.525C167.454 188.195 168.359 188.029 169.348 188.029C170.354 188.029 171.267 188.195 172.086 188.525C172.906 188.855 173.607 189.326 174.191 189.937C174.775 190.548 175.218 191.275 175.518 192.117C175.826 192.96 175.98 193.889 175.98 194.904ZM172.646 194.904C172.646 193.525 172.346 192.452 171.746 191.684C171.153 190.916 170.354 190.532 169.348 190.532C168.699 190.532 168.128 190.705 167.633 191.052C167.138 191.39 166.757 191.894 166.489 192.563C166.221 193.232 166.087 194.013 166.087 194.904C166.087 195.788 166.217 196.56 166.477 197.221C166.744 197.882 167.122 198.389 167.608 198.745C168.103 199.091 168.683 199.265 169.348 199.265C170.354 199.265 171.153 198.881 171.746 198.113C172.346 197.337 172.646 196.267 172.646 194.904Z" fill="white"/>
<path d="M189.657 195.152V199.649C189.657 200.359 189.499 200.892 189.183 201.247C188.866 201.602 188.448 201.779 187.929 201.779C187.426 201.779 187.017 201.602 186.7 201.247C186.392 200.892 186.238 200.359 186.238 199.649V194.26C186.238 193.41 186.209 192.749 186.153 192.278C186.096 191.808 185.942 191.424 185.69 191.126C185.439 190.821 185.041 190.668 184.498 190.668C183.411 190.668 182.693 191.048 182.344 191.808C182.003 192.567 181.833 193.657 181.833 195.078V199.649C181.833 200.351 181.675 200.883 181.358 201.247C181.05 201.602 180.64 201.779 180.129 201.779C179.626 201.779 179.213 201.602 178.888 201.247C178.572 200.883 178.414 200.351 178.414 199.649V189.974C178.414 189.338 178.556 188.855 178.84 188.525C179.132 188.195 179.513 188.029 179.983 188.029C180.438 188.029 180.815 188.186 181.115 188.5C181.423 188.806 181.577 189.231 181.577 189.776V190.098C182.153 189.396 182.77 188.88 183.427 188.55C184.084 188.219 184.814 188.054 185.617 188.054C186.453 188.054 187.171 188.223 187.771 188.562C188.371 188.901 188.866 189.413 189.256 190.098C189.815 189.404 190.416 188.892 191.056 188.562C191.697 188.223 192.407 188.054 193.186 188.054C194.094 188.054 194.877 188.236 195.534 188.599C196.191 188.963 196.682 189.483 197.007 190.16C197.291 190.771 197.433 191.733 197.433 193.046V199.649C197.433 200.359 197.274 200.892 196.958 201.247C196.642 201.602 196.224 201.779 195.705 201.779C195.202 201.779 194.788 201.602 194.463 201.247C194.147 200.883 193.989 200.351 193.989 199.649V193.963C193.989 193.236 193.956 192.654 193.892 192.216C193.835 191.779 193.673 191.411 193.405 191.114C193.137 190.817 192.732 190.668 192.188 190.668C191.75 190.668 191.332 190.8 190.935 191.064C190.545 191.329 190.241 191.684 190.022 192.13C189.779 192.699 189.657 193.707 189.657 195.152Z" fill="white"/>
<path d="M203.979 189.949V199.723C203.979 200.4 203.821 200.912 203.504 201.259C203.188 201.606 202.786 201.779 202.3 201.779C201.813 201.779 201.416 201.602 201.107 201.247C200.807 200.892 200.657 200.384 200.657 199.723V190.049C200.657 189.38 200.807 188.876 201.107 188.537C201.416 188.199 201.813 188.029 202.3 188.029C202.786 188.029 203.188 188.199 203.504 188.537C203.821 188.876 203.979 189.347 203.979 189.949ZM202.336 186.456C201.874 186.456 201.476 186.312 201.144 186.023C200.819 185.734 200.657 185.325 200.657 184.796C200.657 184.317 200.823 183.925 201.156 183.619C201.497 183.306 201.89 183.149 202.336 183.149C202.766 183.149 203.147 183.289 203.48 183.57C203.813 183.851 203.979 184.259 203.979 184.796C203.979 185.316 203.817 185.725 203.492 186.023C203.168 186.312 202.782 186.456 202.336 186.456Z" fill="white"/>
<path d="M216.451 191.907L210.367 198.831H216.877C217.404 198.831 217.802 198.959 218.07 199.215C218.337 199.463 218.471 199.785 218.471 200.182C218.471 200.561 218.337 200.871 218.07 201.111C217.81 201.35 217.413 201.47 216.877 201.47H207.873C207.24 201.47 206.765 201.329 206.449 201.049C206.141 200.768 205.987 200.384 205.987 199.897C205.987 199.608 206.096 199.319 206.315 199.029C206.534 198.732 206.989 198.191 207.678 197.407C208.408 196.581 209.069 195.833 209.661 195.165C210.262 194.496 210.817 193.872 211.329 193.294C211.84 192.708 212.261 192.212 212.594 191.808C212.935 191.403 213.206 191.056 213.409 190.767H208.469C207.788 190.767 207.272 190.705 206.924 190.581C206.575 190.457 206.4 190.131 206.4 189.603C206.4 189.214 206.53 188.905 206.79 188.673C207.058 188.442 207.435 188.327 207.921 188.327H215.551C216.257 188.327 216.796 188.434 217.169 188.649C217.551 188.855 217.741 189.231 217.741 189.776C217.741 189.958 217.705 190.148 217.632 190.346C217.559 190.536 217.477 190.693 217.388 190.817C217.299 190.94 217.177 191.093 217.023 191.275C216.869 191.448 216.678 191.659 216.451 191.907Z" fill="white"/>
<path d="M229.35 195.734H222.852C222.86 196.502 223.01 197.18 223.302 197.766C223.602 198.352 223.996 198.794 224.482 199.091C224.977 199.389 225.521 199.537 226.113 199.537C226.51 199.537 226.871 199.492 227.196 199.401C227.528 199.302 227.849 199.153 228.157 198.955C228.465 198.749 228.749 198.53 229.009 198.299C229.268 198.067 229.605 197.754 230.019 197.357C230.189 197.208 230.433 197.134 230.749 197.134C231.09 197.134 231.365 197.229 231.576 197.419C231.787 197.609 231.893 197.877 231.893 198.224C231.893 198.53 231.775 198.889 231.54 199.302C231.305 199.707 230.948 200.099 230.469 200.479C229.999 200.85 229.402 201.16 228.68 201.408C227.966 201.656 227.143 201.779 226.21 201.779C224.077 201.779 222.418 201.16 221.233 199.921C220.049 198.683 219.457 197.002 219.457 194.88C219.457 193.88 219.603 192.955 219.895 192.105C220.187 191.246 220.613 190.511 221.173 189.9C221.732 189.289 222.422 188.822 223.241 188.5C224.06 188.17 224.969 188.005 225.967 188.005C227.265 188.005 228.376 188.285 229.301 188.847C230.234 189.4 230.931 190.119 231.394 191.002C231.856 191.886 232.087 192.786 232.087 193.703C232.087 194.553 231.848 195.107 231.369 195.363C230.891 195.611 230.218 195.734 229.35 195.734ZM222.852 193.814H228.875C228.794 192.658 228.486 191.795 227.95 191.225C227.423 190.647 226.725 190.358 225.857 190.358C225.03 190.358 224.348 190.651 223.813 191.238C223.286 191.816 222.965 192.675 222.852 193.814Z" fill="white"/>
<path d="M238.196 196.899V199.723C238.196 200.409 238.038 200.925 237.721 201.272C237.405 201.61 237.003 201.779 236.517 201.779C236.038 201.779 235.645 201.606 235.336 201.259C235.028 200.912 234.874 200.4 234.874 199.723V190.309C234.874 188.789 235.413 188.029 236.492 188.029C237.044 188.029 237.441 188.207 237.685 188.562C237.928 188.917 238.062 189.442 238.086 190.135C238.484 189.442 238.889 188.917 239.303 188.562C239.725 188.207 240.285 188.029 240.982 188.029C241.68 188.029 242.357 188.207 243.014 188.562C243.671 188.917 244 189.388 244 189.974C244 190.387 243.858 190.73 243.574 191.002C243.298 191.267 242.998 191.399 242.674 191.399C242.552 191.399 242.256 191.324 241.785 191.176C241.323 191.019 240.913 190.94 240.556 190.94C240.07 190.94 239.672 191.073 239.364 191.337C239.056 191.593 238.816 191.977 238.646 192.489C238.476 193.001 238.358 193.612 238.293 194.322C238.228 195.024 238.196 195.883 238.196 196.899Z" fill="white"/>
<path d="M21.3674 210.311C21.3674 209.651 21.409 209.093 21.492 208.637C21.5751 208.18 21.7163 207.808 21.9157 207.52C22.0984 207.25 22.3144 207.03 22.5636 206.861C22.8128 206.675 23.0703 206.539 23.3361 206.455C23.6186 206.37 23.8927 206.311 24.1585 206.277C24.4243 206.243 24.6735 206.226 24.9061 206.226C25.2882 206.226 25.6454 206.26 25.9777 206.328C26.31 206.379 26.5592 206.438 26.7253 206.506C26.8084 206.539 26.9247 206.615 27.0742 206.734C27.2237 206.835 27.2985 207.021 27.2985 207.292C27.2985 207.529 27.2237 207.732 27.0742 207.901C26.9413 208.053 26.7752 208.129 26.5758 208.129C26.5259 208.129 26.4429 208.121 26.3266 208.104C26.2269 208.087 26.1106 208.078 25.9777 208.078C25.8614 208.062 25.7451 208.045 25.6288 208.028C25.5291 208.011 25.4544 208.002 25.4045 208.002C24.9726 208.002 24.632 208.062 24.3828 208.18C24.1502 208.298 23.9675 208.467 23.8346 208.687C23.7016 208.89 23.6186 209.152 23.5853 209.474C23.5521 209.778 23.5355 210.125 23.5355 210.514V211.554H24.8812C25.0141 211.554 25.1553 211.563 25.3049 211.579C25.4544 211.579 25.5956 211.605 25.7285 211.656C25.8614 211.706 25.9694 211.782 26.0525 211.884C26.1521 211.985 26.202 212.138 26.202 212.341C26.202 212.543 26.1521 212.704 26.0525 212.823C25.9694 212.941 25.8531 213.026 25.7036 213.076C25.5707 213.127 25.4295 213.161 25.2799 213.178C25.1304 213.178 24.9975 213.178 24.8812 213.178H23.5355V223.199C23.5355 223.571 23.5189 223.884 23.4857 224.137C23.4524 224.374 23.3611 224.56 23.2115 224.696C23.1285 224.78 23.0205 224.848 22.8876 224.899C22.7713 224.966 22.6218 225 22.439 225C22.1234 225 21.8658 224.899 21.6665 224.696C21.517 224.543 21.4256 224.349 21.3924 224.112C21.3757 223.875 21.3674 223.571 21.3674 223.199V213.178H20.1962C20.1297 213.178 20.03 213.178 19.8971 213.178C19.7642 213.161 19.6313 213.127 19.4984 213.076C19.3655 213.026 19.2492 212.941 19.1495 212.823C19.0498 212.704 19 212.543 19 212.341C19 212.138 19.0498 211.985 19.1495 211.884C19.2492 211.782 19.3655 211.706 19.4984 211.656C19.6479 211.605 19.7891 211.579 19.9221 211.579C20.055 211.563 20.163 211.554 20.246 211.554H21.3674V210.311Z" fill="white"/>
<path d="M37.2166 218.125C37.2166 216.484 36.8677 215.216 36.1699 214.319C35.4722 213.423 34.5418 212.975 33.3789 212.975C32.1328 212.975 31.1692 213.448 30.4881 214.395C29.8235 215.326 29.4913 216.569 29.4913 218.125C29.4913 219.715 29.8319 220.975 30.513 221.905C31.1942 222.818 32.1494 223.275 33.3789 223.275C34.6083 223.275 35.5552 222.81 36.2198 221.88C36.8843 220.949 37.2166 219.698 37.2166 218.125ZM39.4345 218.125C39.4345 219.343 39.2684 220.383 38.9361 221.245C38.6038 222.108 38.1553 222.818 37.5904 223.376C37.0421 223.934 36.4025 224.349 35.6715 224.619C34.9405 224.873 34.168 225 33.3539 225C32.3405 225 31.4517 224.822 30.6875 224.467C29.9232 224.112 29.2836 223.638 28.7686 223.047C28.2702 222.438 27.8964 221.736 27.6472 220.941C27.398 220.129 27.2734 219.275 27.2734 218.379C27.2734 216.061 27.805 214.294 28.8683 213.076C29.9482 211.859 31.4434 211.25 33.3539 211.25C34.168 211.25 34.9405 211.385 35.6715 211.656C36.4191 211.909 37.0671 212.315 37.6153 212.873C38.1802 213.431 38.6204 214.142 38.9361 215.004C39.2684 215.867 39.4345 216.907 39.4345 218.125Z" fill="white"/>
<path d="M42.431 212.645C42.431 212.493 42.431 212.341 42.431 212.188C42.4476 212.019 42.4808 211.867 42.5307 211.732C42.5971 211.579 42.6968 211.461 42.8297 211.376C42.9626 211.292 43.1454 211.25 43.378 211.25C43.6105 211.25 43.785 211.292 43.9013 211.376C44.0342 211.461 44.1256 211.579 44.1754 211.732C44.2419 211.867 44.2751 212.019 44.2751 212.188C44.2917 212.341 44.3 212.493 44.3 212.645V213.66C44.516 213.321 44.7237 213.009 44.923 212.721C45.139 212.417 45.3633 212.163 45.5959 211.96C45.8285 211.74 46.0943 211.571 46.3933 211.453C46.6924 211.317 47.0412 211.25 47.44 211.25C47.7058 211.25 47.9882 211.283 48.2873 211.351C48.5863 211.419 48.8604 211.52 49.1096 211.656C49.3755 211.774 49.5914 211.926 49.7576 212.112C49.9237 212.298 50.0068 212.51 50.0068 212.746C50.0068 213.068 49.8988 213.321 49.6828 213.508C49.4834 213.677 49.3007 213.761 49.1346 213.761C49.0017 213.761 48.877 213.744 48.7608 213.71C48.6445 213.66 48.5199 213.617 48.3869 213.584C48.254 213.533 48.1045 213.491 47.9384 213.457C47.7722 213.406 47.5729 213.381 47.3403 213.381C46.7588 213.381 46.2853 213.533 45.9198 213.837C45.5709 214.125 45.2968 214.522 45.0975 215.03C44.8981 215.537 44.7652 216.129 44.6987 216.806C44.6323 217.482 44.5991 218.201 44.5991 218.962V223.732C44.5991 224.019 44.5575 224.247 44.4745 224.416C44.3914 224.569 44.2917 224.687 44.1754 224.772C44.0757 224.873 43.9594 224.932 43.8265 224.949C43.7102 224.983 43.6105 225 43.5275 225C43.2118 225 42.9543 224.899 42.7549 224.696C42.5888 224.56 42.4891 224.374 42.4559 224.137C42.4393 223.901 42.431 223.588 42.431 223.199V212.645Z" fill="white"/>
<path d="M76.6024 207.901C76.7021 207.427 76.8267 207.03 76.9762 206.708C77.1258 206.387 77.4248 206.226 77.8734 206.226C78.2555 206.226 78.5379 206.345 78.7207 206.582C78.92 206.818 79.0197 207.055 79.0197 207.292C79.0197 207.478 78.9865 207.698 78.92 207.952C78.8702 208.188 78.837 208.349 78.8204 208.434L75.1072 222.945C75.0242 223.249 74.9411 223.529 74.858 223.782C74.7916 224.036 74.7002 224.256 74.5839 224.442C74.4676 224.611 74.3181 224.746 74.1353 224.848C73.9692 224.949 73.7532 225 73.4874 225C73.205 225 72.9724 224.949 72.7896 224.848C72.6235 224.763 72.4823 224.636 72.366 224.467C72.2497 224.298 72.15 224.087 72.0669 223.833C71.9839 223.579 71.9008 223.3 71.8177 222.996L68.1794 209.347L64.541 222.996C64.4579 223.3 64.3749 223.579 64.2918 223.833C64.2087 224.07 64.109 224.281 63.9927 224.467C63.8764 224.636 63.7269 224.763 63.5442 224.848C63.378 224.949 63.1538 225 62.8713 225C62.5889 225 62.3646 224.949 62.1985 224.848C62.0323 224.763 61.8911 224.636 61.7748 224.467C61.6585 224.281 61.5589 224.061 61.4758 223.808C61.4093 223.554 61.3346 223.266 61.2515 222.945L57.5384 208.434C57.5218 208.366 57.4802 208.205 57.4138 207.952C57.3639 207.698 57.339 207.478 57.339 207.292C57.339 207.055 57.4387 206.818 57.638 206.582C57.8374 206.345 58.1115 206.226 58.4604 206.226C58.9256 206.226 59.233 206.387 59.3825 206.708C59.532 207.013 59.6566 207.41 59.7563 207.901L62.9461 221.22L66.3602 208.383C66.4266 208.078 66.4931 207.808 66.5595 207.571C66.6426 207.334 66.7423 207.14 66.8586 206.988C66.9915 206.818 67.1493 206.692 67.3321 206.607C67.5314 206.506 67.7806 206.455 68.0797 206.455C68.4286 206.455 68.711 206.497 68.927 206.582C69.1429 206.649 69.3091 206.759 69.4254 206.911C69.5583 207.064 69.6663 207.267 69.7493 207.52C69.8324 207.757 69.9155 208.045 69.9986 208.383L73.4126 221.22L76.6024 207.901Z" fill="white"/>
<path d="M89.1989 218.125C89.1989 216.484 88.85 215.216 88.1523 214.319C87.4545 213.423 86.5241 212.975 85.3612 212.975C84.1152 212.975 83.1516 213.448 82.4704 214.395C81.8059 215.326 81.4736 216.569 81.4736 218.125C81.4736 219.715 81.8142 220.975 82.4953 221.905C83.1765 222.818 84.1318 223.275 85.3612 223.275C86.5906 223.275 87.5376 222.81 88.2021 221.88C88.8666 220.949 89.1989 219.698 89.1989 218.125ZM91.4168 218.125C91.4168 219.343 91.2507 220.383 90.9184 221.245C90.5861 222.108 90.1376 222.818 89.5727 223.376C89.0245 223.934 88.3848 224.349 87.6538 224.619C86.9229 224.873 86.1503 225 85.3363 225C84.3228 225 83.434 224.822 82.6698 224.467C81.9055 224.112 81.2659 223.638 80.7509 223.047C80.2525 222.438 79.8787 221.736 79.6295 220.941C79.3803 220.129 79.2557 219.275 79.2557 218.379C79.2557 216.061 79.7873 214.294 80.8506 213.076C81.9305 211.859 83.4257 211.25 85.3363 211.25C86.1503 211.25 86.9229 211.385 87.6538 211.656C88.4015 211.909 89.0494 212.315 89.5976 212.873C90.1625 213.431 90.6028 214.142 90.9184 215.004C91.2507 215.867 91.4168 216.907 91.4168 218.125Z" fill="white"/>
<path d="M103.484 218.125C103.484 216.484 103.135 215.216 102.438 214.319C101.74 213.423 100.81 212.975 99.6466 212.975C98.4006 212.975 97.437 213.448 96.7558 214.395C96.0913 215.326 95.759 216.569 95.759 218.125C95.759 219.715 96.0996 220.975 96.7807 221.905C97.4619 222.818 98.4172 223.275 99.6466 223.275C100.876 223.275 101.823 222.81 102.487 221.88C103.152 220.949 103.484 219.698 103.484 218.125ZM105.702 218.125C105.702 219.343 105.536 220.383 105.204 221.245C104.872 222.108 104.423 222.818 103.858 223.376C103.31 223.934 102.67 224.349 101.939 224.619C101.208 224.873 100.436 225 99.6217 225C98.6082 225 97.7194 224.822 96.9552 224.467C96.191 224.112 95.5513 223.638 95.0363 223.047C94.5379 222.438 94.1641 221.736 93.9149 220.941C93.6657 220.129 93.5411 219.275 93.5411 218.379C93.5411 216.061 94.0727 214.294 95.136 213.076C96.2159 211.859 97.7111 211.25 99.6217 211.25C100.436 211.25 101.208 211.385 101.939 211.656C102.687 211.909 103.335 212.315 103.883 212.873C104.448 213.431 104.888 214.142 105.204 215.004C105.536 215.867 105.702 216.907 105.702 218.125Z" fill="white"/>
<path d="M123.651 219.038C123.651 219.427 123.518 219.96 123.252 220.636C123.003 221.296 122.596 221.956 122.031 222.615C121.483 223.258 120.76 223.816 119.863 224.29C118.966 224.763 117.878 225 116.598 225C116.1 225 115.585 224.966 115.053 224.899C114.538 224.831 114.023 224.721 113.508 224.569C112.993 224.4 112.495 224.18 112.013 223.909C111.531 223.622 111.091 223.266 110.692 222.844C109.862 221.964 109.23 220.882 108.798 219.596C108.366 218.311 108.15 216.983 108.15 215.613C108.15 214.193 108.358 212.907 108.773 211.757C109.189 210.59 109.762 209.601 110.493 208.789C111.241 207.977 112.121 207.351 113.135 206.911C114.148 206.455 115.261 206.226 116.474 206.226C117.338 206.226 118.11 206.336 118.791 206.556C119.489 206.776 120.096 207.055 120.611 207.393C121.142 207.715 121.591 208.087 121.956 208.51C122.322 208.916 122.613 209.313 122.829 209.702C123.061 210.074 123.227 210.421 123.327 210.742C123.443 211.047 123.501 211.275 123.501 211.427C123.501 211.664 123.418 211.901 123.252 212.138C123.103 212.374 122.862 212.493 122.53 212.493C122.347 212.493 122.181 212.45 122.031 212.366C121.898 212.264 121.765 212.146 121.632 212.011C121.516 211.859 121.408 211.698 121.308 211.529C121.209 211.343 121.117 211.165 121.034 210.996C120.802 210.556 120.519 210.159 120.187 209.804C119.855 209.431 119.498 209.127 119.115 208.89C118.85 208.721 118.509 208.56 118.094 208.408C117.695 208.256 117.188 208.18 116.574 208.18C115.942 208.18 115.278 208.298 114.58 208.535C113.882 208.755 113.234 209.152 112.636 209.727C112.055 210.286 111.565 211.055 111.166 212.036C110.784 213 110.593 214.226 110.593 215.715C110.593 217.203 110.784 218.421 111.166 219.368C111.548 220.315 112.021 221.068 112.586 221.626C113.168 222.167 113.799 222.539 114.48 222.742C115.161 222.945 115.793 223.047 116.374 223.047C117.67 223.047 118.75 222.7 119.614 222.006C120.478 221.313 121.126 220.332 121.558 219.063C121.641 218.827 121.749 218.598 121.882 218.379C122.031 218.142 122.28 218.023 122.629 218.023C122.862 218.023 123.086 218.108 123.302 218.277C123.535 218.446 123.651 218.7 123.651 219.038Z" fill="white"/>
<path d="M135.925 218.125C135.925 216.484 135.576 215.216 134.878 214.319C134.18 213.423 133.25 212.975 132.087 212.975C130.841 212.975 129.877 213.448 129.196 214.395C128.532 215.326 128.199 216.569 128.199 218.125C128.199 219.715 128.54 220.975 129.221 221.905C129.902 222.818 130.857 223.275 132.087 223.275C133.316 223.275 134.263 222.81 134.928 221.88C135.592 220.949 135.925 219.698 135.925 218.125ZM138.143 218.125C138.143 219.343 137.976 220.383 137.644 221.245C137.312 222.108 136.863 222.818 136.298 223.376C135.75 223.934 135.111 224.349 134.38 224.619C133.649 224.873 132.876 225 132.062 225C131.049 225 130.16 224.822 129.395 224.467C128.631 224.112 127.992 223.638 127.477 223.047C126.978 222.438 126.604 221.736 126.355 220.941C126.106 220.129 125.981 219.275 125.981 218.379C125.981 216.061 126.513 214.294 127.576 213.076C128.656 211.859 130.151 211.25 132.062 211.25C132.876 211.25 133.649 211.385 134.38 211.656C135.127 211.909 135.775 212.315 136.323 212.873C136.888 213.431 137.328 214.142 137.644 215.004C137.976 215.867 138.143 216.907 138.143 218.125Z" fill="white"/>
<path d="M158.359 223.173C158.359 223.562 158.342 223.875 158.309 224.112C158.292 224.332 158.218 224.518 158.085 224.67C157.985 224.755 157.869 224.831 157.736 224.899C157.62 224.966 157.47 225 157.287 225C157.005 225 156.789 224.941 156.639 224.822C156.507 224.704 156.399 224.56 156.315 224.391C156.249 224.205 156.208 224.002 156.191 223.782C156.191 223.562 156.191 223.351 156.191 223.148V216.4C156.191 216.112 156.174 215.782 156.141 215.41C156.124 215.038 156.041 214.691 155.892 214.37C155.759 214.032 155.535 213.753 155.219 213.533C154.903 213.296 154.455 213.178 153.873 213.178C153.391 213.178 152.901 213.296 152.403 213.533C151.921 213.753 151.547 214.091 151.282 214.548C150.999 215.004 150.833 215.444 150.783 215.867C150.733 216.273 150.708 216.67 150.708 217.059V223.173C150.708 223.562 150.692 223.875 150.659 224.112C150.642 224.332 150.567 224.518 150.434 224.67C150.351 224.755 150.243 224.831 150.11 224.899C149.977 224.966 149.82 225 149.637 225C149.338 225 149.064 224.89 148.814 224.67C148.682 224.518 148.598 224.332 148.565 224.112C148.549 223.875 148.54 223.562 148.54 223.173V216.146C148.54 215.943 148.524 215.672 148.49 215.334C148.474 214.996 148.391 214.666 148.241 214.345C148.108 214.023 147.884 213.753 147.568 213.533C147.253 213.296 146.813 213.178 146.248 213.178C145.666 213.178 145.126 213.321 144.628 213.609C144.129 213.897 143.781 214.26 143.581 214.7C143.315 215.224 143.158 215.74 143.108 216.247C143.058 216.755 143.033 217.296 143.033 217.871V223.173C143.033 223.562 143.016 223.875 142.983 224.112C142.966 224.332 142.892 224.518 142.759 224.67C142.676 224.755 142.568 224.831 142.435 224.899C142.302 224.966 142.144 225 141.961 225C141.662 225 141.388 224.89 141.139 224.67C141.006 224.518 140.923 224.332 140.89 224.112C140.873 223.875 140.865 223.562 140.865 223.173V213.051C140.865 212.848 140.865 212.637 140.865 212.417C140.881 212.197 140.923 212.002 140.989 211.833C141.056 211.664 141.147 211.529 141.264 211.427C141.396 211.309 141.588 211.25 141.837 211.25C142.086 211.25 142.285 211.326 142.435 211.478C142.601 211.63 142.701 211.774 142.734 211.909C142.767 212.045 142.784 212.197 142.784 212.366C142.8 212.518 142.809 212.856 142.809 213.381C143.191 212.789 143.706 212.29 144.354 211.884C145.002 211.461 145.791 211.25 146.721 211.25C146.871 211.25 147.07 211.267 147.319 211.3C147.568 211.317 147.826 211.368 148.092 211.453C148.374 211.52 148.657 211.63 148.939 211.782C149.221 211.918 149.479 212.112 149.712 212.366C149.911 212.586 150.052 212.797 150.135 213C150.235 213.186 150.318 213.372 150.384 213.558C150.501 213.389 150.659 213.169 150.858 212.899C151.057 212.628 151.315 212.374 151.63 212.138C151.963 211.901 152.353 211.698 152.802 211.529C153.25 211.343 153.774 211.25 154.372 211.25C154.671 211.25 154.986 211.283 155.319 211.351C155.651 211.402 155.975 211.503 156.291 211.656C156.623 211.791 156.922 211.977 157.188 212.214C157.47 212.45 157.703 212.746 157.885 213.102C158.118 213.592 158.251 214.066 158.284 214.522C158.334 214.962 158.359 215.343 158.359 215.664V223.173Z" fill="white"/>
<path d="M179.118 223.173C179.118 223.562 179.101 223.875 179.068 224.112C179.051 224.332 178.977 224.518 178.844 224.67C178.744 224.755 178.628 224.831 178.495 224.899C178.379 224.966 178.229 225 178.046 225C177.764 225 177.548 224.941 177.398 224.822C177.265 224.704 177.157 224.56 177.074 224.391C177.008 224.205 176.966 224.002 176.95 223.782C176.95 223.562 176.95 223.351 176.95 223.148V216.4C176.95 216.112 176.933 215.782 176.9 215.41C176.883 215.038 176.8 214.691 176.651 214.37C176.518 214.032 176.294 213.753 175.978 213.533C175.662 213.296 175.214 213.178 174.632 213.178C174.15 213.178 173.66 213.296 173.162 213.533C172.68 213.753 172.306 214.091 172.04 214.548C171.758 215.004 171.592 215.444 171.542 215.867C171.492 216.273 171.467 216.67 171.467 217.059V223.173C171.467 223.562 171.451 223.875 171.417 224.112C171.401 224.332 171.326 224.518 171.193 224.67C171.11 224.755 171.002 224.831 170.869 224.899C170.736 224.966 170.578 225 170.396 225C170.097 225 169.823 224.89 169.573 224.67C169.44 224.518 169.357 224.332 169.324 224.112C169.307 223.875 169.299 223.562 169.299 223.173V216.146C169.299 215.943 169.283 215.672 169.249 215.334C169.233 214.996 169.15 214.666 169 214.345C168.867 214.023 168.643 213.753 168.327 213.533C168.012 213.296 167.571 213.178 167.007 213.178C166.425 213.178 165.885 213.321 165.387 213.609C164.888 213.897 164.539 214.26 164.34 214.7C164.074 215.224 163.916 215.74 163.867 216.247C163.817 216.755 163.792 217.296 163.792 217.871V223.173C163.792 223.562 163.775 223.875 163.742 224.112C163.725 224.332 163.651 224.518 163.518 224.67C163.435 224.755 163.327 224.831 163.194 224.899C163.061 224.966 162.903 225 162.72 225C162.421 225 162.147 224.89 161.898 224.67C161.765 224.518 161.682 224.332 161.649 224.112C161.632 223.875 161.624 223.562 161.624 223.173V213.051C161.624 212.848 161.624 212.637 161.624 212.417C161.64 212.197 161.682 212.002 161.748 211.833C161.815 211.664 161.906 211.529 162.022 211.427C162.155 211.309 162.346 211.25 162.596 211.25C162.845 211.25 163.044 211.326 163.194 211.478C163.36 211.63 163.46 211.774 163.493 211.909C163.526 212.045 163.543 212.197 163.543 212.366C163.559 212.518 163.567 212.856 163.567 213.381C163.95 212.789 164.465 212.29 165.113 211.884C165.76 211.461 166.55 211.25 167.48 211.25C167.63 211.25 167.829 211.267 168.078 211.3C168.327 211.317 168.585 211.368 168.851 211.453C169.133 211.52 169.415 211.63 169.698 211.782C169.98 211.918 170.238 212.112 170.47 212.366C170.67 212.586 170.811 212.797 170.894 213C170.994 213.186 171.077 213.372 171.143 213.558C171.26 213.389 171.417 213.169 171.617 212.899C171.816 212.628 172.074 212.374 172.389 212.138C172.722 211.901 173.112 211.698 173.561 211.529C174.009 211.343 174.532 211.25 175.131 211.25C175.43 211.25 175.745 211.283 176.078 211.351C176.41 211.402 176.734 211.503 177.049 211.656C177.382 211.791 177.681 211.977 177.947 212.214C178.229 212.45 178.462 212.746 178.644 213.102C178.877 213.592 179.01 214.066 179.043 214.522C179.093 214.962 179.118 215.343 179.118 215.664V223.173Z" fill="white"/>
<path d="M191.503 217.034C191.47 216.662 191.42 216.281 191.354 215.892C191.304 215.486 191.138 215.038 190.855 214.548C190.573 214.057 190.183 213.66 189.684 213.355C189.186 213.034 188.579 212.873 187.865 212.873C187.433 212.873 187.043 212.941 186.694 213.076C186.362 213.195 186.062 213.347 185.797 213.533C185.531 213.719 185.307 213.93 185.124 214.167C184.941 214.404 184.792 214.632 184.675 214.852C184.459 215.241 184.31 215.63 184.227 216.019C184.16 216.408 184.11 216.746 184.077 217.034H191.503ZM184.052 218.556C184.069 219.436 184.193 220.188 184.426 220.814C184.659 221.423 184.958 221.922 185.323 222.311C185.705 222.683 186.129 222.954 186.594 223.123C187.076 223.292 187.574 223.376 188.089 223.376C188.621 223.376 189.07 223.309 189.435 223.173C189.817 223.038 190.141 222.86 190.407 222.641C190.689 222.421 190.93 222.167 191.13 221.88C191.346 221.592 191.545 221.304 191.728 221.017C191.811 220.899 191.919 220.763 192.052 220.611C192.185 220.442 192.384 220.357 192.65 220.357C192.882 220.357 193.073 220.442 193.223 220.611C193.389 220.78 193.472 220.975 193.472 221.195C193.472 221.398 193.422 221.6 193.323 221.803C193.24 222.006 193.148 222.192 193.048 222.362C192.899 222.598 192.7 222.869 192.45 223.173C192.218 223.478 191.902 223.765 191.503 224.036C191.105 224.307 190.615 224.535 190.033 224.721C189.468 224.907 188.787 225 187.99 225C186.926 225 186.004 224.822 185.223 224.467C184.459 224.112 183.82 223.63 183.305 223.021C182.806 222.395 182.432 221.66 182.183 220.814C181.951 219.968 181.834 219.063 181.834 218.099C181.834 217.152 181.959 216.264 182.208 215.436C182.457 214.59 182.831 213.863 183.33 213.254C183.828 212.628 184.459 212.138 185.223 211.782C185.988 211.427 186.893 211.25 187.94 211.25C188.787 211.25 189.518 211.368 190.133 211.605C190.747 211.842 191.271 212.146 191.703 212.518C192.135 212.89 192.484 213.305 192.749 213.761C193.015 214.218 193.215 214.666 193.348 215.106C193.497 215.546 193.597 215.951 193.647 216.324C193.696 216.679 193.721 216.949 193.721 217.135C193.721 217.491 193.663 217.77 193.547 217.973C193.431 218.159 193.273 218.294 193.073 218.379C192.891 218.463 192.683 218.514 192.45 218.531C192.234 218.548 192.018 218.556 191.802 218.556H184.052Z" fill="white"/>
<path d="M196.699 212.645C196.699 212.493 196.699 212.341 196.699 212.188C196.715 212.019 196.749 211.867 196.798 211.732C196.865 211.579 196.965 211.461 197.097 211.376C197.23 211.292 197.413 211.25 197.646 211.25C197.878 211.25 198.053 211.292 198.169 211.376C198.302 211.461 198.393 211.579 198.443 211.732C198.51 211.867 198.543 212.019 198.543 212.188C198.559 212.341 198.568 212.493 198.568 212.645V213.66C198.784 213.321 198.991 213.009 199.191 212.721C199.407 212.417 199.631 212.163 199.864 211.96C200.096 211.74 200.362 211.571 200.661 211.453C200.96 211.317 201.309 211.25 201.708 211.25C201.974 211.25 202.256 211.283 202.555 211.351C202.854 211.419 203.128 211.52 203.377 211.656C203.643 211.774 203.859 211.926 204.025 212.112C204.191 212.298 204.275 212.51 204.275 212.746C204.275 213.068 204.167 213.321 203.951 213.508C203.751 213.677 203.568 213.761 203.402 213.761C203.269 213.761 203.145 213.744 203.028 213.71C202.912 213.66 202.788 213.617 202.655 213.584C202.522 213.533 202.372 213.491 202.206 213.457C202.04 213.406 201.841 213.381 201.608 213.381C201.027 213.381 200.553 213.533 200.188 213.837C199.839 214.125 199.565 214.522 199.365 215.03C199.166 215.537 199.033 216.129 198.966 216.806C198.9 217.482 198.867 218.201 198.867 218.962V223.732C198.867 224.019 198.825 224.247 198.742 224.416C198.659 224.569 198.559 224.687 198.443 224.772C198.343 224.873 198.227 224.932 198.094 224.949C197.978 224.983 197.878 225 197.795 225C197.48 225 197.222 224.899 197.023 224.696C196.857 224.56 196.757 224.374 196.724 224.137C196.707 223.901 196.699 223.588 196.699 223.199V212.645Z" fill="white"/>
<path d="M216.984 220.839C216.984 221.025 216.893 221.347 216.71 221.803C216.527 222.26 216.211 222.725 215.763 223.199C215.331 223.672 214.758 224.095 214.043 224.467C213.346 224.822 212.473 225 211.427 225C210.579 225 209.848 224.907 209.234 224.721C208.636 224.535 208.129 224.298 207.714 224.011C207.298 223.723 206.958 223.419 206.692 223.097C206.443 222.776 206.243 222.471 206.094 222.184C205.861 221.778 205.645 221.254 205.446 220.611C205.263 219.951 205.172 219.131 205.172 218.15C205.172 217.389 205.263 216.603 205.446 215.791C205.629 214.979 205.952 214.235 206.418 213.558C206.883 212.882 207.506 212.332 208.287 211.909C209.084 211.47 210.098 211.25 211.327 211.25C212.058 211.25 212.689 211.326 213.221 211.478C213.769 211.63 214.234 211.833 214.616 212.087C215.015 212.324 215.347 212.594 215.613 212.899C215.879 213.186 216.103 213.474 216.286 213.761C216.402 213.93 216.502 214.125 216.585 214.345C216.685 214.548 216.735 214.759 216.735 214.979C216.735 215.267 216.635 215.503 216.436 215.689C216.236 215.858 216.012 215.943 215.763 215.943C215.696 215.943 215.622 215.943 215.539 215.943C215.472 215.926 215.397 215.892 215.314 215.842C215.231 215.774 215.14 215.681 215.04 215.562C214.94 215.444 214.832 215.275 214.716 215.055C214.633 214.92 214.508 214.734 214.342 214.497C214.193 214.26 213.985 214.032 213.719 213.812C213.47 213.575 213.146 213.381 212.747 213.228C212.365 213.059 211.9 212.975 211.352 212.975C210.139 212.975 209.167 213.431 208.436 214.345C207.705 215.241 207.34 216.476 207.34 218.049C207.34 219.689 207.689 220.975 208.386 221.905C209.101 222.818 210.073 223.275 211.302 223.275C212 223.275 212.639 223.114 213.221 222.793C213.819 222.471 214.284 222.006 214.616 221.398C214.633 221.347 214.675 221.271 214.741 221.169C214.807 221.051 214.874 220.932 214.94 220.814C215.007 220.679 215.065 220.56 215.115 220.459C215.181 220.34 215.231 220.264 215.264 220.23C215.347 220.129 215.439 220.036 215.539 219.951C215.655 219.867 215.804 219.825 215.987 219.825C216.22 219.825 216.444 219.918 216.66 220.104C216.876 220.273 216.984 220.518 216.984 220.839Z" fill="white"/>
<path d="M228.933 217.034C228.899 216.662 228.85 216.281 228.783 215.892C228.733 215.486 228.567 215.038 228.285 214.548C228.002 214.057 227.612 213.66 227.113 213.355C226.615 213.034 226.009 212.873 225.294 212.873C224.862 212.873 224.472 212.941 224.123 213.076C223.791 213.195 223.492 213.347 223.226 213.533C222.96 213.719 222.736 213.93 222.553 214.167C222.37 214.404 222.221 214.632 222.104 214.852C221.888 215.241 221.739 215.63 221.656 216.019C221.589 216.408 221.54 216.746 221.506 217.034H228.933ZM221.481 218.556C221.498 219.436 221.623 220.188 221.855 220.814C222.088 221.423 222.387 221.922 222.752 222.311C223.134 222.683 223.558 222.954 224.023 223.123C224.505 223.292 225.004 223.376 225.519 223.376C226.05 223.376 226.499 223.309 226.864 223.173C227.246 223.038 227.57 222.86 227.836 222.641C228.119 222.421 228.359 222.167 228.559 221.88C228.775 221.592 228.974 221.304 229.157 221.017C229.24 220.899 229.348 220.763 229.481 220.611C229.614 220.442 229.813 220.357 230.079 220.357C230.312 220.357 230.503 220.442 230.652 220.611C230.818 220.78 230.901 220.975 230.901 221.195C230.901 221.398 230.851 221.6 230.752 221.803C230.669 222.006 230.577 222.192 230.478 222.362C230.328 222.598 230.129 222.869 229.88 223.173C229.647 223.478 229.331 223.765 228.933 224.036C228.534 224.307 228.044 224.535 227.462 224.721C226.897 224.907 226.216 225 225.419 225C224.356 225 223.434 224.822 222.653 224.467C221.888 224.112 221.249 223.63 220.734 223.021C220.235 222.395 219.862 221.66 219.612 220.814C219.38 219.968 219.264 219.063 219.264 218.099C219.264 217.152 219.388 216.264 219.637 215.436C219.887 214.59 220.26 213.863 220.759 213.254C221.257 212.628 221.888 212.138 222.653 211.782C223.417 211.427 224.322 211.25 225.369 211.25C226.216 211.25 226.947 211.368 227.562 211.605C228.177 211.842 228.7 212.146 229.132 212.518C229.564 212.89 229.913 213.305 230.179 213.761C230.444 214.218 230.644 214.666 230.777 215.106C230.926 215.546 231.026 215.951 231.076 216.324C231.126 216.679 231.151 216.949 231.151 217.135C231.151 217.491 231.092 217.77 230.976 217.973C230.86 218.159 230.702 218.294 230.503 218.379C230.32 218.463 230.112 218.514 229.88 218.531C229.664 218.548 229.448 218.556 229.232 218.556H221.481Z" fill="white"/>
</g>
<g filter="url(#filter1_d)">
<path d="M49.7416 81.6438C51.4812 64.2476 66.1197 51 83.6026 51H180.894C198.722 51 213.529 64.7602 214.833 82.541C216.279 102.263 200.668 119.06 180.894 119.06H83.6026C63.4697 119.06 47.7383 101.677 49.7416 81.6438Z" fill="#F07217"/>
</g>
<g filter="url(#filter2_d)">
<path d="M51.8984 82.9463C51.8984 67.6604 64.2901 55.2687 79.5761 55.2687H183.934C199.22 55.2687 211.612 67.6604 211.612 82.9463C211.612 98.2322 199.22 110.624 183.934 110.624H79.5761C64.2902 110.624 51.8984 98.2322 51.8984 82.9463Z" fill="#F07217"/>
</g>
<g filter="url(#filter3_d)">
<path d="M143.946 94.4877L194.429 111.315L178.802 121.422L175.954 123.264L178.352 125.662L195.584 142.895L192.353 146.126L175.121 128.894L172.722 126.495L170.88 129.343L160.774 144.971L143.946 94.4877Z" fill="#FFFBFB"/>
<path d="M134.277 84.8196L136.41 91.22L156.776 152.318L158.997 158.978L162.809 153.083L173.748 136.169L189.968 152.389L192.353 154.774L194.738 152.389L201.847 145.28L204.233 142.895L201.847 140.509L185.628 124.29L202.541 113.351L208.436 109.538L201.776 107.319L140.678 86.9526L134.277 84.8196ZM139.611 90.1529L200.709 110.519L180.291 123.723L199.462 142.895L192.353 150.003L173.182 130.832L159.977 151.251L139.611 90.1529Z" fill="#FFFBFB"/>
<path d="M142.133 82.5324C143.947 84.3461 144.585 86.8896 144.05 89.2184C143.759 90.4845 140.192 88.7596 139.205 89.7469C138.259 90.6925 140.041 94.2469 138.833 94.5539C136.462 95.1555 133.846 94.528 131.991 92.6738C129.19 89.8739 129.19 85.3334 131.991 82.5324C134.791 79.7325 139.332 79.7325 142.133 82.5324Z" fill="#FFFBFB"/>
<path d="M137.077 101.566C133.417 101.566 129.839 100.129 127.187 97.4777C124.55 94.8397 123.098 91.3336 123.098 87.6027C123.098 83.874 124.55 80.368 127.187 77.73C132.632 72.2854 141.491 72.2854 146.935 77.73C150.615 81.4104 151.941 86.7864 150.395 91.7587L147.174 90.7568C148.347 86.9843 147.342 82.907 144.55 80.115C140.421 75.986 133.702 75.9871 129.573 80.115C125.444 84.244 125.444 90.9637 129.573 95.0916C132.268 97.7869 136.224 98.8236 139.901 97.8082L140.802 101.059C139.573 101.4 138.32 101.566 137.077 101.566Z" fill="#FFFBFB"/>
<path d="M137.058 107.431C131.875 107.431 126.82 105.398 123.042 101.621C119.298 97.8778 117.236 92.8987 117.236 87.6026C117.236 82.3075 119.298 77.3296 123.042 73.5852C130.773 65.8557 143.35 65.8557 151.08 73.5852C156.425 78.9297 158.26 86.7086 155.869 93.8849L152.67 92.8178C154.653 86.8616 153.131 80.4072 148.695 75.9712C142.28 69.554 131.842 69.5563 125.429 75.9712C122.321 79.0781 120.609 83.2093 120.609 87.6026C120.609 91.9969 122.321 96.1282 125.429 99.2362C129.716 103.523 135.993 105.105 141.806 103.36L142.777 106.59C140.892 107.156 138.966 107.431 137.058 107.431Z" fill="#FFFBFB"/>
</g>
<defs>
<filter id="filter0_d" x="0" y="0" width="264" height="264" filterUnits="userSpaceOnUse" color-interpolation-filters="sRGB">
<feFlood flood-opacity="0" result="BackgroundImageFix"/>
<feColorMatrix in="SourceAlpha" type="matrix" values="0 0 0 0 0 0 0 0 0 0 0 0 0 0 0 0 0 0 127 0"/>
<feOffset dy="4"/>
<feGaussianBlur stdDeviation="2"/>
<feColorMatrix type="matrix" values="0 0 0 0 0 0 0 0 0 0 0 0 0 0 0 0 0 0 0.25 0"/>
<feBlend mode="normal" in2="BackgroundImageFix" result="effect1_dropShadow"/>
<feBlend mode="normal" in="SourceGraphic" in2="effect1_dropShadow" result="shape"/>
</filter>
<filter id="filter1_d" x="45.5693" y="51" width="173.356" height="76.0598" filterUnits="userSpaceOnUse" color-interpolation-filters="sRGB">
<feFlood flood-opacity="0" result="BackgroundImageFix"/>
<feColorMatrix in="SourceAlpha" type="matrix" values="0 0 0 0 0 0 0 0 0 0 0 0 0 0 0 0 0 0 127 0"/>
<feOffset dy="4"/>
<feGaussianBlur stdDeviation="2"/>
<feColorMatrix type="matrix" values="0 0 0 0 0 0 0 0 0 0 0 0 0 0 0 0 0 0 0.25 0"/>
<feBlend mode="normal" in2="BackgroundImageFix" result="effect1_dropShadow"/>
<feBlend mode="normal" in="SourceGraphic" in2="effect1_dropShadow" result="shape"/>
</filter>
<filter id="filter2_d" x="47.8984" y="55.2687" width="167.714" height="63.3553" filterUnits="userSpaceOnUse" color-interpolation-filters="sRGB">
<feFlood flood-opacity="0" result="BackgroundImageFix"/>
<feColorMatrix in="SourceAlpha" type="matrix" values="0 0 0 0 0 0 0 0 0 0 0 0 0 0 0 0 0 0 127 0"/>
<feOffset dy="4"/>
<feGaussianBlur stdDeviation="2"/>
<feColorMatrix type="matrix" values="0 0 0 0 0 0 0 0 0 0 0 0 0 0 0 0 0 0 0.3 0"/>
<feBlend mode="normal" in2="BackgroundImageFix" result="effect1_dropShadow"/>
<feBlend mode="normal" in="SourceGraphic" in2="effect1_dropShadow" result="shape"/>
</filter>
<filter id="filter3_d" x="109.236" y="63.7881" width="107.2" height="107.19" filterUnits="userSpaceOnUse" color-interpolation-filters="sRGB">
<feFlood flood-opacity="0" result="BackgroundImageFix"/>
<feColorMatrix in="SourceAlpha" type="matrix" values="0 0 0 0 0 0 0 0 0 0 0 0 0 0 0 0 0 0 127 0"/>
<feOffset dy="4"/>
<feGaussianBlur stdDeviation="4"/>
<feColorMatrix type="matrix" values="0 0 0 0 0 0 0 0 0 0 0 0 0 0 0 0 0 0 0.8 0"/>
<feBlend mode="normal" in2="BackgroundImageFix" result="effect1_dropShadow"/>
<feBlend mode="normal" in="SourceGraphic" in2="effect1_dropShadow" result="shape"/>
</filter>
</defs>
</svg>
